STARTFONT 2.1
COMMENT
COMMENT Converted from OpenType font "Context_Ultra_Condensed.ttf" by "otf2bdf 3.0".
COMMENT
FONT -FreeType-Context Ultra Condensed SSi-Medium-R-Normal--33-240-100-100-P-100-ISO10646-1
SIZE 24 100 100
FONTBOUNDINGBOX 39 38 -6 -7
STARTPROPERTIES 19
FOUNDRY "FreeType"
FAMILY_NAME "Context Ultra Condensed SSi"
WEIGHT_NAME "Medium"
SLANT "R"
SETWIDTH_NAME "Normal"
ADD_STYLE_NAME ""
PIXEL_SIZE 33
POINT_SIZE 240
RESOLUTION_X 100
RESOLUTION_Y 100
SPACING "P"
AVERAGE_WIDTH 100
CHARSET_REGISTRY "ISO10646"
CHARSET_ENCODING "1"
FONT_ASCENT 24
FONT_DESCENT 4
COPYRIGHT "Copyright c 1992 Southern Software, Inc. All Rights Reserved"
_OTF_FONTFILE "Context_Ultra_Condensed.ttf"
_OTF_PSNAME "ContextUltraCondensedSSiUltraCondensed"
ENDPROPERTIES
CHARS 230
STARTCHAR 0020
ENCODING 32
SWIDTH 180 0
DWIDTH 6 0
BBX 0 0 0 0
BITMAP
ENDCHAR
STARTCHAR 0021
ENCODING 33
SWIDTH 210 0
DWIDTH 7 0
BBX 3 24 2 0
BITMAP
E0
E0
E0
E0
E0
E0
E0
E0
E0
E0
E0
E0
E0
E0
E0
E0
E0
E0
E0
00
E0
E0
E0
E0
ENDCHAR
STARTCHAR 0022
ENCODING 34
SWIDTH 330 0
DWIDTH 11 0
BBX 8 9 2 15
BITMAP
C7
C7
C7
C7
C7
C7
C7
C7
C7
ENDCHAR
STARTCHAR 0023
ENCODING 35
SWIDTH 330 0
DWIDTH 11 0
BBX 13 24 -1 0
BITMAP
0C30
0C70
0C70
0C60
0C60
0C60
1C60
7FF8
7FF8
18E0
18E0
18E0
18C0
18C0
18C0
FFF0
FFF0
30C0
30C0
31C0
31C0
3180
3180
7180
ENDCHAR
STARTCHAR 0024
ENCODING 36
SWIDTH 330 0
DWIDTH 11 0
BBX 9 26 1 -1
BITMAP
0C00
1C00
7F00
FF80
F380
E380
E380
E380
F380
F380
7800
7C00
3E00
1F00
0F00
0F80
E780
E780
E380
E380
E380
F780
FF80
FF80
7E00
0800
ENDCHAR
STARTCHAR 0025
ENCODING 37
SWIDTH 510 0
DWIDTH 17 0
BBX 15 24 1 0
BITMAP
7830
FC30
CC20
CE60
CE60
CE40
CEC0
CEC0
CE80
CF80
CD80
FD7C
7B7E
03EE
02EE
06EE
06EE
04EE
04EE
0CEE
08EE
08EE
18FE
187C
ENDCHAR
STARTCHAR 0026
ENCODING 38
SWIDTH 390 0
DWIDTH 13 0
BBX 12 24 1 0
BITMAP
1F00
3F80
7380
7380
7380
7380
7380
7780
7F00
3E00
7C00
7CE0
FCE0
FEE0
FEE0
FEE0
F7E0
F7E0
F3E0
F3E0
F1E0
7FF0
7FF0
1E70
ENDCHAR
STARTCHAR 0027
ENCODING 39
SWIDTH 210 0
DWIDTH 7 0
BBX 3 9 2 15
BITMAP
E0
E0
E0
E0
E0
E0
E0
E0
E0
ENDCHAR
STARTCHAR 0028
ENCODING 40
SWIDTH 180 0
DWIDTH 6 0
BBX 6 27 0 -3
BITMAP
1C
1C
38
38
38
70
70
70
70
70
60
E0
E0
E0
E0
E0
60
70
70
70
70
70
38
38
38
1C
1C
ENDCHAR
STARTCHAR 0029
ENCODING 41
SWIDTH 180 0
DWIDTH 6 0
BBX 6 27 -1 -3
BITMAP
E0
70
70
38
38
38
18
1C
1C
1C
1C
1C
1C
1C
1C
1C
1C
1C
1C
1C
18
38
38
38
70
70
F0
ENDCHAR
STARTCHAR 002A
ENCODING 42
SWIDTH 330 0
DWIDTH 11 0
BBX 9 9 1 15
BITMAP
1800
1800
D980
FF80
3C00
3C00
3600
6700
4200
ENDCHAR
STARTCHAR 002B
ENCODING 43
SWIDTH 510 0
DWIDTH 17 0
BBX 17 17 0 1
BITMAP
01C000
01C000
01C000
01C000
01C000
01C000
01C000
FFFF80
FFFF80
FFFF80
01C000
01C000
01C000
01C000
01C000
01C000
01C000
ENDCHAR
STARTCHAR 002C
ENCODING 44
SWIDTH 180 0
DWIDTH 6 0
BBX 4 8 1 -4
BITMAP
F0
E0
E0
E0
E0
C0
C0
C0
ENDCHAR
STARTCHAR 002D
ENCODING 45
SWIDTH 180 0
DWIDTH 6 0
BBX 4 2 1 9
BITMAP
F0
F0
ENDCHAR
STARTCHAR 002E
ENCODING 46
SWIDTH 180 0
DWIDTH 6 0
BBX 3 4 1 0
BITMAP
E0
E0
E0
E0
ENDCHAR
STARTCHAR 002F
ENCODING 47
SWIDTH 270 0
DWIDTH 9 0
BBX 10 24 0 0
BITMAP
00C0
0180
0180
0100
0300
0300
0200
0600
0600
0400
0C00
0C00
0800
1800
1800
1000
3000
3000
2000
6000
6000
4000
C000
C000
ENDCHAR
STARTCHAR 0030
ENCODING 48
SWIDTH 330 0
DWIDTH 11 0
BBX 9 24 1 0
BITMAP
3E00
7F00
FF80
F380
E380
E380
E380
E380
E380
E380
E380
E380
E380
E380
E380
E380
E380
E380
E380
E380
F780
FF80
7F00
3E00
ENDCHAR
STARTCHAR 0031
ENCODING 49
SWIDTH 330 0
DWIDTH 11 0
BBX 6 24 2 0
BITMAP
1C
1C
3C
FC
FC
FC
3C
3C
3C
3C
3C
3C
3C
3C
3C
3C
3C
3C
3C
3C
3C
3C
3C
3C
ENDCHAR
STARTCHAR 0032
ENCODING 50
SWIDTH 330 0
DWIDTH 11 0
BBX 9 24 1 0
BITMAP
3E00
7F00
FF80
F780
E380
E380
E380
E380
E780
0700
0F00
0F00
1E00
1E00
3C00
3C00
7800
7800
F000
F000
F000
FF80
FF80
FF80
ENDCHAR
STARTCHAR 0033
ENCODING 51
SWIDTH 330 0
DWIDTH 11 0
BBX 9 24 1 0
BITMAP
3E00
7F00
FF80
F780
E380
E380
E380
E380
0380
0780
1F00
1C00
1F00
0780
0380
E380
E380
E380
E380
E380
F380
FF80
7F00
3E00
ENDCHAR
STARTCHAR 0034
ENCODING 52
SWIDTH 330 0
DWIDTH 11 0
BBX 11 24 0 0
BITMAP
0FC0
0FC0
0FC0
1FC0
1FC0
1FC0
1BC0
3BC0
3BC0
3BC0
33C0
73C0
73C0
73C0
E3C0
FFE0
FFE0
FFE0
03C0
03C0
03C0
03C0
03C0
03C0
ENDCHAR
STARTCHAR 0035
ENCODING 53
SWIDTH 330 0
DWIDTH 11 0
BBX 9 24 1 0
BITMAP
FF80
FF80
FF80
F000
F000
F000
F000
F000
F000
FF00
FF80
FF80
F780
0380
0380
E380
E380
E380
E380
E380
F780
FF80
7F00
3E00
ENDCHAR
STARTCHAR 0036
ENCODING 54
SWIDTH 330 0
DWIDTH 11 0
BBX 9 24 1 0
BITMAP
3E00
7F00
FF80
F780
E380
E380
E380
E380
E380
E000
EF00
FF80
FF80
F780
E380
E380
E380
E380
E380
E380
F780
FF80
7F00
3E00
ENDCHAR
STARTCHAR 0037
ENCODING 55
SWIDTH 330 0
DWIDTH 11 0
BBX 9 24 1 0
BITMAP
FF80
FF80
FF80
0380
0380
0780
0780
0700
0700
0F00
0F00
0E00
1E00
1E00
1E00
1C00
3C00
3C00
3C00
3800
7800
7800
7800
7000
ENDCHAR
STARTCHAR 0038
ENCODING 56
SWIDTH 330 0
DWIDTH 11 0
BBX 9 24 1 0
BITMAP
3E00
7F00
FF80
F780
E380
E380
E380
E380
E380
F780
7F00
1C00
7F00
F780
E380
E380
E380
E380
E380
E380
F780
FF80
7F00
3E00
ENDCHAR
STARTCHAR 0039
ENCODING 57
SWIDTH 330 0
DWIDTH 11 0
BBX 9 24 1 0
BITMAP
3E00
7F00
FF80
F780
E380
E380
E380
E380
E380
E380
E380
E380
F780
FF80
FF80
7B80
0380
E380
E380
E380
F380
FF80
7F00
3E00
ENDCHAR
STARTCHAR 003A
ENCODING 58
SWIDTH 180 0
DWIDTH 6 0
BBX 3 18 1 0
BITMAP
E0
E0
E0
E0
00
00
00
00
00
00
00
00
00
00
E0
E0
E0
E0
ENDCHAR
STARTCHAR 003B
ENCODING 59
SWIDTH 180 0
DWIDTH 6 0
BBX 5 22 0 -4
BITMAP
70
70
70
70
00
00
00
00
00
00
00
00
00
00
78
70
70
70
60
60
E0
C0
ENDCHAR
STARTCHAR 003C
ENCODING 60
SWIDTH 510 0
DWIDTH 17 0
BBX 15 15 1 2
BITMAP
0006
001E
007C
03F0
0FC0
3F00
F800
F000
FC00
3F00
07C0
01F8
007E
001E
0002
ENDCHAR
STARTCHAR 003D
ENCODING 61
SWIDTH 510 0
DWIDTH 17 0
BBX 17 10 0 5
BITMAP
FFFF80
FFFF80
FFFF80
000000
000000
000000
000000
FFFF80
FFFF80
FFFF80
ENDCHAR
STARTCHAR 003E
ENCODING 62
SWIDTH 510 0
DWIDTH 17 0
BBX 15 15 1 1
BITMAP
8000
E000
F800
3F00
0FC0
03F0
007C
001E
003E
01F8
07E0
1F80
7C00
F000
C000
ENDCHAR
STARTCHAR 003F
ENCODING 63
SWIDTH 330 0
DWIDTH 11 0
BBX 9 24 1 0
BITMAP
3E00
7F00
7700
F780
F780
F780
F780
F780
0780
0F00
0F00
1E00
1E00
1C00
1C00
1C00
1C00
1C00
1C00
0000
1C00
1C00
1C00
1C00
ENDCHAR
STARTCHAR 0040
ENCODING 64
SWIDTH 810 0
DWIDTH 27 0
BBX 24 24 1 0
BITMAP
007F00
01FFE0
07C0F0
0F003C
1C000C
383E0E
387F77
70FF67
71E3E3
63C1E3
E380C3
E381C3
E781C7
E701C7
67838E
73C78C
73FFF8
39FFF0
38F1C6
1C000C
0F003C
07C0F0
01FFE0
007F00
ENDCHAR
STARTCHAR 0041
ENCODING 65
SWIDTH 330 0
DWIDTH 11 0
BBX 11 24 0 0
BITMAP
1F00
1F00
1F00
3F80
3B80
3B80
3B80
3B80
3B80
3B80
3B80
3BC0
7BC0
7BC0
7FC0
7FC0
7FC0
71C0
71C0
71C0
71E0
F1E0
F1E0
E1E0
ENDCHAR
STARTCHAR 0042
ENCODING 66
SWIDTH 330 0
DWIDTH 11 0
BBX 9 24 1 0
BITMAP
FE00
FF00
FF80
E780
E380
E380
E380
E380
E780
E780
FF00
FC00
FF00
E780
E380
E380
E380
E380
E380
E380
E780
FF80
FF00
FE00
ENDCHAR
STARTCHAR 0043
ENCODING 67
SWIDTH 330 0
DWIDTH 11 0
BBX 9 24 1 0
BITMAP
3E00
7F00
FF80
F780
E380
E380
E380
E380
E380
E000
E000
E000
E000
E000
E000
E380
E380
E380
E380
E380
F780
FF80
7F00
3E00
ENDCHAR
STARTCHAR 0044
ENCODING 68
SWIDTH 330 0
DWIDTH 11 0
BBX 9 24 1 0
BITMAP
FE00
FF00
FF80
E780
E380
E380
E380
E380
E380
E380
E380
E380
E380
E380
E380
E380
E380
E380
E380
E380
E780
FF80
FF00
FE00
ENDCHAR
STARTCHAR 0045
ENCODING 69
SWIDTH 270 0
DWIDTH 9 0
BBX 8 24 1 0
BITMAP
FF
FF
FF
F0
F0
F0
F0
F0
F0
FF
FF
FF
F0
F0
F0
F0
F0
F0
F0
F0
F0
FF
FF
FF
ENDCHAR
STARTCHAR 0046
ENCODING 70
SWIDTH 270 0
DWIDTH 9 0
BBX 8 24 1 0
BITMAP
FF
FF
FF
F0
F0
F0
F0
F0
F0
FF
FF
FF
F0
F0
F0
F0
F0
F0
F0
F0
F0
F0
F0
F0
ENDCHAR
STARTCHAR 0047
ENCODING 71
SWIDTH 330 0
DWIDTH 11 0
BBX 9 24 1 0
BITMAP
3E00
7F00
FF80
F780
E380
E380
E380
E380
E380
E000
E000
E000
EF80
EF80
EF80
E380
E380
E380
E380
E380
F780
FF80
7F80
3D80
ENDCHAR
STARTCHAR 0048
ENCODING 72
SWIDTH 330 0
DWIDTH 11 0
BBX 9 24 1 0
BITMAP
F380
F380
F380
F380
F380
F380
F380
F380
F380
FF80
FF80
FF80
F380
F380
F380
F380
F380
F380
F380
F380
F380
F380
F380
F380
ENDCHAR
STARTCHAR 0049
ENCODING 73
SWIDTH 180 0
DWIDTH 6 0
BBX 4 24 1 0
BITMAP
F0
F0
F0
F0
F0
F0
F0
F0
F0
F0
F0
F0
F0
F0
F0
F0
F0
F0
F0
F0
F0
F0
F0
F0
ENDCHAR
STARTCHAR 004A
ENCODING 74
SWIDTH 330 0
DWIDTH 11 0
BBX 9 24 1 0
BITMAP
0380
0380
0380
0380
0380
0380
0380
0380
0380
0380
0380
0380
0380
0380
0380
F380
F380
F380
F380
F380
F780
F780
7F00
3E00
ENDCHAR
STARTCHAR 004B
ENCODING 75
SWIDTH 330 0
DWIDTH 11 0
BBX 10 24 1 0
BITMAP
F3C0
F380
F380
F780
F780
F700
F700
FF00
FF00
FE00
FE00
FE00
FE00
FF00
FF00
FF00
F700
F700
F780
F780
F780
F380
F3C0
F3C0
ENDCHAR
STARTCHAR 004C
ENCODING 76
SWIDTH 270 0
DWIDTH 9 0
BBX 8 24 1 0
BITMAP
F0
F0
F0
F0
F0
F0
F0
F0
F0
F0
F0
F0
F0
F0
F0
F0
F0
F0
F0
F0
F0
FF
FF
FF
ENDCHAR
STARTCHAR 004D
ENCODING 77
SWIDTH 480 0
DWIDTH 16 0
BBX 14 24 1 0
BITMAP
F87C
FCFC
FCFC
FCFC
FCFC
FCFC
ECFC
ECDC
ECDC
EEDC
EEDC
EFDC
EFDC
EFDC
EFDC
EFDC
E7DC
E79C
E79C
E79C
E79C
E79C
E79C
E79C
ENDCHAR
STARTCHAR 004E
ENCODING 78
SWIDTH 390 0
DWIDTH 13 0
BBX 11 24 1 0
BITMAP
F8E0
FCE0
FCE0
FCE0
FCE0
FCE0
FCE0
FCE0
FEE0
EEE0
EEE0
EEE0
EEE0
EEE0
EEE0
E7E0
E7E0
E7E0
E7E0
E7E0
E7E0
E7E0
E3E0
E3E0
ENDCHAR
STARTCHAR 004F
ENCODING 79
SWIDTH 330 0
DWIDTH 11 0
BBX 9 24 1 0
BITMAP
3E00
7F00
FF80
F780
E380
E380
E380
E380
E380
E380
E380
E380
E380
E380
E380
E380
E380
E380
E380
E380
F780
FF80
7F00
3E00
ENDCHAR
STARTCHAR 0050
ENCODING 80
SWIDTH 330 0
DWIDTH 11 0
BBX 9 24 1 0
BITMAP
FE00
FF00
FF80
E780
E380
E380
E380
E380
E380
E380
E380
E780
FF80
FF00
FE00
E000
E000
E000
E000
E000
E000
E000
E000
E000
ENDCHAR
STARTCHAR 0051
ENCODING 81
SWIDTH 330 0
DWIDTH 11 0
BBX 10 27 1 -3
BITMAP
3E00
7F00
FF80
F780
E380
E380
E380
E380
E380
E380
E380
E380
E380
E380
E380
E380
E380
E380
E380
E380
F780
FF80
7F00
3E00
03C0
03C0
03C0
ENDCHAR
STARTCHAR 0052
ENCODING 82
SWIDTH 330 0
DWIDTH 11 0
BBX 10 24 1 0
BITMAP
FE00
FF00
FF80
E780
E380
E380
E380
E380
E380
E780
FF00
FE00
FF00
E780
E380
E380
E380
E380
E380
E380
E380
E380
E380
E3C0
ENDCHAR
STARTCHAR 0053
ENCODING 83
SWIDTH 330 0
DWIDTH 11 0
BBX 9 24 1 0
BITMAP
3E00
7F00
FF80
F780
E380
E380
E380
E380
F380
7800
7C00
3C00
1E00
0F00
0780
E780
E380
E380
E380
E380
F780
FF80
7F00
3E00
ENDCHAR
STARTCHAR 0054
ENCODING 84
SWIDTH 330 0
DWIDTH 11 0
BBX 10 24 0 0
BITMAP
FFC0
FFC0
FFC0
1E00
1E00
1E00
1E00
1E00
1E00
1E00
1E00
1E00
1E00
1E00
1E00
1E00
1E00
1E00
1E00
1E00
1E00
1E00
1E00
1E00
ENDCHAR
STARTCHAR 0055
ENCODING 85
SWIDTH 330 0
DWIDTH 11 0
BBX 9 24 1 0
BITMAP
E380
E380
E380
E380
E380
E380
E380
E380
E380
E380
E380
E380
E380
E380
E380
E380
E380
E380
E380
E380
F780
FF80
7F00
3E00
ENDCHAR
STARTCHAR 0056
ENCODING 86
SWIDTH 330 0
DWIDTH 11 0
BBX 11 24 0 0
BITMAP
F1E0
F1E0
F1E0
71E0
71C0
71C0
71C0
71C0
79C0
7BC0
7BC0
7BC0
3B80
3B80
3B80
3B80
3B80
3B80
3B80
3F80
3F80
1F00
1F00
1F00
ENDCHAR
STARTCHAR 0057
ENCODING 87
SWIDTH 480 0
DWIDTH 16 0
BBX 16 24 0 0
BITMAP
F3C7
F3C7
73C6
73EE
73EE
73EE
73EE
7BEE
7BEE
7F6E
7F6E
7F6E
7F6C
3F6C
3F6C
3E6C
3E6C
3E7C
3E7C
3E7C
3E7C
3E7C
3E78
3E78
ENDCHAR
STARTCHAR 0058
ENCODING 88
SWIDTH 330 0
DWIDTH 11 0
BBX 11 24 0 0
BITMAP
F0E0
71E0
71C0
79C0
79C0
3BC0
3B80
3B80
3F80
3F80
1F00
1F00
1F00
1F80
3B80
3B80
3B80
3BC0
7BC0
73C0
71C0
71E0
F1E0
E1E0
ENDCHAR
STARTCHAR 0059
ENCODING 89
SWIDTH 330 0
DWIDTH 11 0
BBX 11 24 0 0
BITMAP
F0E0
F1E0
71C0
79C0
79C0
7BC0
3B80
3B80
3B80
3F80
1F00
1F00
1F00
1F00
0E00
0E00
0E00
0E00
0E00
0E00
0E00
0E00
0E00
0E00
ENDCHAR
STARTCHAR 005A
ENCODING 90
SWIDTH 270 0
DWIDTH 9 0
BBX 8 24 0 0
BITMAP
FF
FF
FF
0F
0F
0F
0E
1E
1E
1E
1C
1C
3C
3C
3C
38
78
78
78
70
70
FF
FF
FF
ENDCHAR
STARTCHAR 005B
ENCODING 91
SWIDTH 210 0
DWIDTH 7 0
BBX 6 27 1 -3
BITMAP
FC
FC
E0
E0
E0
E0
E0
E0
E0
E0
E0
E0
E0
E0
E0
E0
E0
E0
E0
E0
E0
E0
E0
E0
E0
FC
FC
ENDCHAR
STARTCHAR 005C
ENCODING 92
SWIDTH 270 0
DWIDTH 9 0
BBX 13 24 -2 0
BITMAP
C000
6000
6000
3000
3000
1000
1800
0800
0C00
0400
0600
0600
0300
0300
0180
0180
00C0
00C0
0060
0060
0030
0030
0010
0018
ENDCHAR
STARTCHAR 005D
ENCODING 93
SWIDTH 210 0
DWIDTH 7 0
BBX 6 27 0 -3
BITMAP
FC
FC
1C
1C
1C
1C
1C
1C
1C
1C
1C
1C
1C
1C
1C
1C
1C
1C
1C
1C
1C
1C
1C
1C
1C
FC
FC
ENDCHAR
STARTCHAR 005E
ENCODING 94
SWIDTH 510 0
DWIDTH 17 0
BBX 16 14 0 10
BITMAP
01C0
03C0
03E0
0760
0770
0E70
0E38
1C38
1C1C
381C
380E
700E
7007
E007
ENDCHAR
STARTCHAR 005F
ENCODING 95
SWIDTH 510 0
DWIDTH 17 0
BBX 17 2 0 -3
BITMAP
FFFF80
FFFF80
ENDCHAR
STARTCHAR 0060
ENCODING 96
SWIDTH 150 0
DWIDTH 5 0
BBX 7 6 -2 21
BITMAP
F0
30
38
1C
0C
06
ENDCHAR
STARTCHAR 0061
ENCODING 97
SWIDTH 270 0
DWIDTH 9 0
BBX 8 19 1 0
BITMAP
7C
FE
EF
EF
EF
EF
EF
3F
7F
FF
EF
EF
EF
EF
EF
EF
FF
FF
FF
ENDCHAR
STARTCHAR 0062
ENCODING 98
SWIDTH 270 0
DWIDTH 9 0
BBX 8 24 1 0
BITMAP
E0
E0
E0
E0
E0
FE
FE
EF
EF
EF
EF
EF
EF
EF
EF
EF
EF
EF
EF
EF
EF
FF
FF
EE
ENDCHAR
STARTCHAR 0063
ENCODING 99
SWIDTH 270 0
DWIDTH 9 0
BBX 8 19 1 0
BITMAP
7C
FE
EF
EF
EF
EF
EF
E0
E0
E0
E0
EF
EF
EF
EF
EF
EF
FE
7C
ENDCHAR
STARTCHAR 0064
ENCODING 100
SWIDTH 270 0
DWIDTH 9 0
BBX 8 24 1 0
BITMAP
0F
0F
0F
0F
0F
FF
FF
EF
EF
EF
EF
EF
EF
EF
EF
EF
EF
EF
EF
EF
EF
FF
FF
FF
ENDCHAR
STARTCHAR 0065
ENCODING 101
SWIDTH 270 0
DWIDTH 9 0
BBX 8 19 1 0
BITMAP
7C
FE
EF
EF
EF
EF
EF
EF
FF
FF
E0
EF
EF
EF
EF
EF
EF
FE
7C
ENDCHAR
STARTCHAR 0066
ENCODING 102
SWIDTH 180 0
DWIDTH 6 0
BBX 5 24 0 0
BITMAP
38
78
78
70
70
F8
F8
70
70
70
70
70
70
70
70
70
70
70
70
70
70
70
70
70
ENDCHAR
STARTCHAR 0067
ENCODING 103
SWIDTH 270 0
DWIDTH 9 0
BBX 8 23 1 -4
BITMAP
FF
FF
EF
EF
EF
EF
EF
EF
EF
EF
EF
EF
EF
EF
FF
FF
FF
0F
EF
EF
EF
FE
7C
ENDCHAR
STARTCHAR 0068
ENCODING 104
SWIDTH 270 0
DWIDTH 9 0
BBX 8 24 1 0
BITMAP
E0
E0
E0
E0
E0
EE
FE
FF
EF
EF
EF
EF
EF
EF
EF
EF
EF
EF
EF
EF
EF
EF
EF
EF
ENDCHAR
STARTCHAR 0069
ENCODING 105
SWIDTH 150 0
DWIDTH 5 0
BBX 3 24 1 0
BITMAP
E0
E0
E0
00
00
E0
E0
E0
E0
E0
E0
E0
E0
E0
E0
E0
E0
E0
E0
E0
E0
E0
E0
E0
ENDCHAR
STARTCHAR 006A
ENCODING 106
SWIDTH 150 0
DWIDTH 5 0
BBX 5 28 -1 -4
BITMAP
38
38
38
00
00
38
38
38
38
38
38
38
38
38
38
38
38
38
38
38
38
38
38
38
38
78
F8
F0
ENDCHAR
STARTCHAR 006B
ENCODING 107
SWIDTH 270 0
DWIDTH 9 0
BBX 8 24 1 0
BITMAP
E0
E0
E0
E0
E0
E7
EF
EE
EE
EE
EE
FE
FC
FC
FC
FE
EE
EE
EE
EE
EE
EF
E7
E7
ENDCHAR
STARTCHAR 006C
ENCODING 108
SWIDTH 150 0
DWIDTH 5 0
BBX 3 24 1 0
BITMAP
E0
E0
E0
E0
E0
E0
E0
E0
E0
E0
E0
E0
E0
E0
E0
E0
E0
E0
E0
E0
E0
E0
E0
E0
ENDCHAR
STARTCHAR 006D
ENCODING 109
SWIDTH 420 0
DWIDTH 14 0
BBX 12 19 1 0
BITMAP
EEF0
FFF0
FFF0
EF70
EF70
EF70
EF70
EF70
EF70
EF70
EF70
EF70
EF70
EF70
EF70
EF70
EF70
EF70
EF70
ENDCHAR
STARTCHAR 006E
ENCODING 110
SWIDTH 270 0
DWIDTH 9 0
BBX 8 19 1 0
BITMAP
EE
FE
FF
EF
EF
EF
EF
EF
EF
EF
EF
EF
EF
EF
EF
EF
EF
EF
EF
ENDCHAR
STARTCHAR 006F
ENCODING 111
SWIDTH 270 0
DWIDTH 9 0
BBX 8 19 1 0
BITMAP
7C
FE
EF
EF
EF
EF
EF
EF
EF
EF
EF
EF
EF
EF
EF
EF
EF
FE
7C
ENDCHAR
STARTCHAR 0070
ENCODING 112
SWIDTH 270 0
DWIDTH 9 0
BBX 8 23 1 -4
BITMAP
FE
FE
EF
EF
EF
EF
EF
EF
EF
EF
EF
EF
EF
EF
EF
EF
FF
FF
EE
E0
E0
E0
E0
ENDCHAR
STARTCHAR 0071
ENCODING 113
SWIDTH 270 0
DWIDTH 9 0
BBX 8 23 1 -4
BITMAP
FF
FF
EF
EF
EF
EF
EF
EF
EF
EF
EF
EF
EF
EF
EF
EF
FF
FF
FF
0F
0F
0F
0F
ENDCHAR
STARTCHAR 0072
ENCODING 114
SWIDTH 270 0
DWIDTH 9 0
BBX 8 19 1 0
BITMAP
EE
FE
FF
EF
EF
EF
EF
EF
EF
EF
E0
E0
E0
E0
E0
E0
E0
E0
E0
ENDCHAR
STARTCHAR 0073
ENCODING 115
SWIDTH 270 0
DWIDTH 9 0
BBX 8 19 1 0
BITMAP
7C
FE
EF
EF
EF
EF
FF
F8
78
3C
1E
EE
EF
EF
EF
EF
FF
FE
7C
ENDCHAR
STARTCHAR 0074
ENCODING 116
SWIDTH 180 0
DWIDTH 6 0
BBX 5 23 0 0
BITMAP
70
70
70
70
F8
F8
70
70
70
70
70
70
70
70
70
70
70
70
70
70
78
78
38
ENDCHAR
STARTCHAR 0075
ENCODING 117
SWIDTH 270 0
DWIDTH 9 0
BBX 8 19 1 0
BITMAP
EF
EF
EF
EF
EF
EF
EF
EF
EF
EF
EF
EF
EF
EF
EF
EF
FF
FF
FF
ENDCHAR
STARTCHAR 0076
ENCODING 118
SWIDTH 270 0
DWIDTH 9 0
BBX 9 19 0 0
BITMAP
E380
E380
F380
7380
7780
7700
7700
7700
7700
7700
7700
3700
3600
3600
3600
3E00
3E00
3E00
3E00
ENDCHAR
STARTCHAR 0077
ENCODING 119
SWIDTH 450 0
DWIDTH 15 0
BBX 15 19 0 0
BITMAP
E39E
F39C
F79C
F79C
77DC
77DC
76DC
76DC
76DC
76D8
76D8
76F8
36F8
36F8
36F8
3CF8
3CF8
3C70
3C70
ENDCHAR
STARTCHAR 0078
ENCODING 120
SWIDTH 270 0
DWIDTH 9 0
BBX 9 19 0 0
BITMAP
F700
7700
7700
7700
7600
7600
3E00
3E00
3E00
3E00
3E00
3E00
7E00
7600
7700
7700
7700
E700
E780
ENDCHAR
STARTCHAR 0079
ENCODING 121
SWIDTH 270 0
DWIDTH 9 0
BBX 9 23 0 -4
BITMAP
E380
E380
F380
7380
7700
7700
7700
7700
7700
7700
3700
3600
3600
3600
3E00
3E00
3E00
1E00
1C00
1C00
1C00
7C00
7800
ENDCHAR
STARTCHAR 007A
ENCODING 122
SWIDTH 210 0
DWIDTH 7 0
BBX 7 19 0 0
BITMAP
FE
FE
0E
1E
1C
1C
1C
3C
38
38
38
78
70
70
70
F0
E0
FE
FE
ENDCHAR
STARTCHAR 007B
ENCODING 123
SWIDTH 330 0
DWIDTH 11 0
BBX 9 27 1 -3
BITMAP
0780
0F80
1E00
1C00
1C00
1C00
1C00
1C00
1C00
1C00
1C00
3C00
F800
E000
F800
3C00
1C00
1C00
1C00
1C00
1C00
1C00
1C00
1C00
1C00
0F80
0780
ENDCHAR
STARTCHAR 007C
ENCODING 124
SWIDTH 210 0
DWIDTH 7 0
BBX 3 24 2 0
BITMAP
E0
E0
E0
E0
E0
E0
E0
E0
E0
E0
E0
E0
E0
E0
E0
E0
E0
E0
E0
E0
E0
E0
E0
E0
ENDCHAR
STARTCHAR 007D
ENCODING 125
SWIDTH 330 0
DWIDTH 11 0
BBX 9 27 1 -3
BITMAP
F000
F800
1C00
1C00
1C00
1C00
1C00
1C00
1C00
1C00
1C00
1E00
0F80
0380
0F80
1E00
1C00
1C00
1C00
1C00
1C00
1C00
1C00
1C00
1C00
F800
F000
ENDCHAR
STARTCHAR 007E
ENCODING 126
SWIDTH 510 0
DWIDTH 17 0
BBX 15 5 1 7
BITMAP
3C04
FF8E
FFFE
C3FC
80F8
ENDCHAR
STARTCHAR 009D
ENCODING 157
SWIDTH 870 0
DWIDTH 29 0
BBX 31 24 0 0
BITMAP
0003C1E0
000C4E30
00307830
0060F030
00C0E060
0181C0E0
0103C1C6
030E838C
033D8E0C
03319800
03018000
0300C000
0380C020
01806060
00C06040
00C030C0
00683880
707C1980
E0381900
C0301B00
C0601A00
C0703600
61F06600
3F9F8600
ENDCHAR
STARTCHAR 00A0
ENCODING 160
SWIDTH 750 0
DWIDTH 25 0
BBX 0 0 0 0
BITMAP
ENDCHAR
STARTCHAR 00A1
ENCODING 161
SWIDTH 210 0
DWIDTH 7 0
BBX 3 24 2 -4
BITMAP
E0
E0
E0
E0
00
E0
E0
E0
E0
E0
E0
E0
E0
E0
E0
E0
E0
E0
E0
E0
E0
E0
E0
E0
ENDCHAR
STARTCHAR 00A2
ENCODING 162
SWIDTH 330 0
DWIDTH 11 0
BBX 8 25 2 -3
BITMAP
06
06
04
7E
FE
EF
EF
EF
EF
EF
E0
E0
E0
E0
EF
EF
EF
EF
EF
EF
FE
7C
C0
C0
C0
ENDCHAR
STARTCHAR 00A3
ENCODING 163
SWIDTH 330 0
DWIDTH 11 0
BBX 10 24 1 0
BITMAP
3F00
7F80
FF80
F380
E380
E380
F000
F000
F000
F000
7000
FE00
FE00
7800
7800
7800
7800
7800
7000
7000
E000
FFC0
FFC0
FFC0
ENDCHAR
STARTCHAR 00A4
ENCODING 164
SWIDTH 330 0
DWIDTH 11 0
BBX 9 9 1 9
BITMAP
FF80
6300
C180
C180
C180
C180
C180
6300
FF80
ENDCHAR
STARTCHAR 00A5
ENCODING 165
SWIDTH 330 0
DWIDTH 11 0
BBX 11 24 0 0
BITMAP
F0E0
F1E0
71C0
79C0
79C0
7BC0
3B80
3B80
3B80
3F80
7FC0
7FC0
1F00
1F00
7FC0
7FC0
0E00
0E00
0E00
0E00
0E00
0E00
0E00
0E00
ENDCHAR
STARTCHAR 00A6
ENCODING 166
SWIDTH 210 0
DWIDTH 7 0
BBX 3 24 2 0
BITMAP
E0
E0
E0
E0
E0
E0
E0
E0
E0
00
00
00
00
00
00
E0
E0
E0
E0
E0
E0
E0
E0
E0
ENDCHAR
STARTCHAR 00A7
ENCODING 167
SWIDTH 330 0
DWIDTH 11 0
BBX 9 28 1 -4
BITMAP
3E00
7F00
7380
6380
E380
7000
7000
7800
3C00
7E00
FF00
E700
E780
E380
E380
F380
7B80
3F80
1F00
0E00
0700
0700
E380
E380
E380
E700
7F00
3E00
ENDCHAR
STARTCHAR 00A8
ENCODING 168
SWIDTH 150 0
DWIDTH 5 0
BBX 7 3 -1 23
BITMAP
EE
EE
EE
ENDCHAR
STARTCHAR 00A9
ENCODING 169
SWIDTH 810 0
DWIDTH 27 0
BBX 25 24 1 0
BITMAP
007F0000
03FFC000
0F81F000
1E007800
3C001C00
383E0E00
70FF8F00
71E1C700
E3C0C700
E380E380
E3800380
E3800380
E3800380
E3800380
E380E380
E1C0C700
71E1C700
70FF8F00
383E0E00
3C001C00
1E003800
0F81F000
03FFE000
007F0000
ENDCHAR
STARTCHAR 00AA
ENCODING 170
SWIDTH 180 0
DWIDTH 6 0
BBX 5 11 0 13
BITMAP
78
F8
D8
D8
38
F8
D8
D8
D8
D8
F8
ENDCHAR
STARTCHAR 00AB
ENCODING 171
SWIDTH 330 0
DWIDTH 11 0
BBX 10 15 1 2
BITMAP
1040
10C0
31C0
73C0
F380
E700
C600
8600
C700
E780
F3C0
71C0
30C0
10C0
1040
ENDCHAR
STARTCHAR 00AC
ENCODING 172
SWIDTH 510 0
DWIDTH 17 0
BBX 17 10 0 5
BITMAP
FFFF80
FFFF80
FFFF80
000380
000380
000380
000380
000380
000380
000380
ENDCHAR
STARTCHAR 00AE
ENCODING 174
SWIDTH 810 0
DWIDTH 27 0
BBX 25 24 1 0
BITMAP
007F0000
03FFC000
0F81F000
1E007800
3C001C00
39FF0E00
71FF8F00
71C1C700
E1C1C700
E1C1C380
E1C1C380
E1FF8380
E1FF0380
E1CE0380
E1C60380
E1C70700
71C38700
71C18F00
39C1CE00
3C001C00
1E003800
0F81F000
03FFE000
007F0000
ENDCHAR
STARTCHAR 00AF
ENCODING 175
SWIDTH 150 0
DWIDTH 5 0
BBX 7 2 -1 23
BITMAP
FE
FE
ENDCHAR
STARTCHAR 00B0
ENCODING 176
SWIDTH 390 0
DWIDTH 13 0
BBX 10 10 2 14
BITMAP
1E00
6300
C180
C080
C080
C0C0
C080
C180
6300
1E00
ENDCHAR
STARTCHAR 00B1
ENCODING 177
SWIDTH 510 0
DWIDTH 17 0
BBX 17 17 0 1
BITMAP
01C000
01C000
01C000
01C000
01C000
FFFF80
FFFF80
FFFF80
01C000
01C000
01C000
01C000
01C000
000000
FFFF80
FFFF80
FFFF80
ENDCHAR
STARTCHAR 00B2
ENCODING 178
SWIDTH 210 0
DWIDTH 7 0
BBX 6 14 0 10
BITMAP
78
7C
EC
EC
EC
0C
1C
38
38
70
70
60
E0
FC
ENDCHAR
STARTCHAR 00B3
ENCODING 179
SWIDTH 210 0
DWIDTH 7 0
BBX 6 14 0 10
BITMAP
78
6C
EC
EC
EC
0C
1C
1C
0C
EC
EC
EC
7C
78
ENDCHAR
STARTCHAR 00B4
ENCODING 180
SWIDTH 150 0
DWIDTH 5 0
BBX 7 6 0 21
BITMAP
1E
38
38
70
60
C0
ENDCHAR
STARTCHAR 00B5
ENCODING 181
SWIDTH 270 0
DWIDTH 9 0
BBX 8 23 1 -4
BITMAP
EF
EF
EF
EF
EF
EF
EF
EF
EF
EF
EF
EF
EF
EF
EF
EF
FF
FF
FF
E0
E0
E0
E0
ENDCHAR
STARTCHAR 00B6
ENCODING 182
SWIDTH 600 0
DWIDTH 20 0
BBX 18 30 1 -6
BITMAP
0FFFC0
3FFFC0
7FCE00
FFCE00
FFCE00
FFCE00
FFCE00
FFCE00
FFCE00
7FCE00
3FCE00
1FCE00
01CE00
01CE00
01CE00
01CE00
01CE00
01CE00
01CE00
01CE00
01CE00
01CE00
01CE00
01CE00
01CE00
01CE00
01CE00
01CE00
01CE00
01CE00
ENDCHAR
STARTCHAR 00B8
ENCODING 184
SWIDTH 150 0
DWIDTH 5 0
BBX 7 7 -1 -7
BITMAP
10
20
3C
0E
0E
0E
F8
ENDCHAR
STARTCHAR 00B9
ENCODING 185
SWIDTH 210 0
DWIDTH 7 0
BBX 4 14 1 10
BITMAP
30
70
F0
70
70
70
70
70
70
70
70
70
70
70
ENDCHAR
STARTCHAR 00BA
ENCODING 186
SWIDTH 180 0
DWIDTH 6 0
BBX 5 11 0 13
BITMAP
78
D8
D8
D8
D8
D8
D8
D8
D8
D8
F8
ENDCHAR
STARTCHAR 00BB
ENCODING 187
SWIDTH 330 0
DWIDTH 11 0
BBX 10 15 1 2
BITMAP
8800
8400
C600
E700
E780
73C0
31C0
30C0
71C0
F3C0
E780
C700
C600
8400
8800
ENDCHAR
STARTCHAR 00BC
ENCODING 188
SWIDTH 510 0
DWIDTH 17 0
BBX 15 24 1 0
BITMAP
3030
7060
F060
7040
70C0
70C0
7080
7180
7180
7100
733C
733C
722C
722C
066C
066C
046C
0CCC
0CCC
08FE
180C
180C
100C
300C
ENDCHAR
STARTCHAR 00BD
ENCODING 189
SWIDTH 510 0
DWIDTH 17 0
BBX 15 24 1 0
BITMAP
3020
7060
F060
7040
70C0
70C0
7080
7180
7180
7100
733C
737E
7266
7666
7666
040E
0C0C
0C1C
0838
1838
1870
1070
3070
307E
ENDCHAR
STARTCHAR 00BE
ENCODING 190
SWIDTH 510 0
DWIDTH 17 0
BBX 15 24 1 0
BITMAP
7810
D830
DC30
DC20
DC60
1860
3840
38C0
18C0
DC80
DD9C
DDBC
F93C
FB3C
032C
026C
066C
066C
04CC
0CFE
0C0C
080C
080C
180C
ENDCHAR
STARTCHAR 00BF
ENCODING 191
SWIDTH 330 0
DWIDTH 11 0
BBX 9 24 1 -4
BITMAP
1C00
1C00
1C00
1C00
0000
1C00
1C00
1C00
1C00
1C00
1C00
3C00
3C00
7800
7800
7780
F780
F780
F780
F780
F780
7780
7F00
3E00
ENDCHAR
STARTCHAR 00C0
ENCODING 192
SWIDTH 330 0
DWIDTH 11 0
BBX 11 31 0 0
BITMAP
7800
1C00
0C00
0E00
0600
0300
0000
1F00
1F00
1F00
3F80
3B80
3B80
3B80
3B80
3B80
3B80
3B80
3BC0
7BC0
7BC0
7FC0
7FC0
7FC0
71C0
71C0
71C0
71E0
F1E0
F1E0
E1E0
ENDCHAR
STARTCHAR 00C1
ENCODING 193
SWIDTH 330 0
DWIDTH 11 0
BBX 11 31 0 0
BITMAP
03C0
0300
0700
0E00
0C00
1800
0000
1F00
1F00
1F00
3F80
3B80
3B80
3B80
3B80
3B80
3B80
3B80
3BC0
7BC0
7BC0
7FC0
7FC0
7FC0
71C0
71C0
71C0
71E0
F1E0
F1E0
E1E0
ENDCHAR
STARTCHAR 00C2
ENCODING 194
SWIDTH 330 0
DWIDTH 11 0
BBX 11 31 0 0
BITMAP
0E00
1F00
1B00
3980
3180
60C0
0000
1F00
1F00
1F00
3F80
3B80
3B80
3B80
3B80
3B80
3B80
3B80
3BC0
7BC0
7BC0
7FC0
7FC0
7FC0
71C0
71C0
71C0
71E0
F1E0
F1E0
E1E0
ENDCHAR
STARTCHAR 00C3
ENCODING 195
SWIDTH 330 0
DWIDTH 11 0
BBX 11 30 0 0
BITMAP
0840
3FC0
3F80
6000
0000
0000
1F00
1F00
1F00
3F80
3B80
3B80
3B80
3B80
3B80
3B80
3B80
3BC0
7BC0
7BC0
7FC0
7FC0
7FC0
71C0
71C0
71C0
71E0
F1E0
F1E0
E1E0
ENDCHAR
STARTCHAR 00C4
ENCODING 196
SWIDTH 330 0
DWIDTH 11 0
BBX 11 30 0 0
BITMAP
3B80
3B80
3B80
0000
0000
0000
1F00
1F00
1F80
3F80
3B80
3B80
3B80
3B80
3B80
3B80
3B80
3BC0
7BC0
7BC0
7FC0
7FC0
7FC0
71C0
71C0
71C0
71E0
F1E0
F1E0
E1E0
ENDCHAR
STARTCHAR 00C5
ENCODING 197
SWIDTH 330 0
DWIDTH 11 0
BBX 11 31 0 0
BITMAP
0E00
1F00
1100
1100
1F00
0E00
0000
1F00
1F00
1F00
1F80
3B80
3B80
3B80
3B80
3B80
3B80
3B80
3B80
7BC0
7BC0
7FC0
7FC0
7FC0
71C0
71C0
71C0
71E0
F1E0
F1E0
E1E0
ENDCHAR
STARTCHAR 00C6
ENCODING 198
SWIDTH 480 0
DWIDTH 16 0
BBX 16 24 0 0
BITMAP
07FF
07FF
0FFF
0EE0
0EE0
0EE0
0EE0
1EE0
1CE0
1CFF
1CFF
1CFF
3CE0
3CE0
3FE0
3FE0
3FE0
78E0
70E0
70E0
70E0
70FF
F0FF
F0FF
ENDCHAR
STARTCHAR 00C7
ENCODING 199
SWIDTH 330 0
DWIDTH 11 0
BBX 9 31 1 -7
BITMAP
3E00
7F00
FF80
F780
E380
E380
E380
E380
E380
E000
E000
E000
E000
E000
E000
E380
E380
E380
E380
E380
F780
FF80
7F00
3E00
0800
1E00
1F00
0700
0300
0700
7C00
ENDCHAR
STARTCHAR 00C8
ENCODING 200
SWIDTH 270 0
DWIDTH 9 0
BBX 9 31 0 0
BITMAP
F000
3800
1800
1C00
0C00
0600
0000
7F80
7F80
7F80
7800
7800
7800
7800
7800
7800
7F80
7F80
7F80
7800
7800
7800
7800
7800
7800
7800
7800
7800
7F80
7F80
7F80
ENDCHAR
STARTCHAR 00C9
ENCODING 201
SWIDTH 270 0
DWIDTH 9 0
BBX 8 31 1 0
BITMAP
0F
0E
1C
18
30
60
00
FF
FF
FF
F0
F0
F0
F0
F0
F0
FF
FF
FF
F0
F0
F0
F0
F0
F0
F0
F0
F0
FF
FF
FF
ENDCHAR
STARTCHAR 00CA
ENCODING 202
SWIDTH 270 0
DWIDTH 9 0
BBX 9 31 0 0
BITMAP
1C00
3E00
3600
7300
6300
C180
0000
7F80
7F80
7F80
7800
7800
7800
7800
7800
7800
7F80
7F80
7F80
7800
7800
7800
7800
7800
7800
7800
7800
7800
7F80
7F80
7F80
ENDCHAR
STARTCHAR 00CB
ENCODING 203
SWIDTH 270 0
DWIDTH 9 0
BBX 8 30 1 0
BITMAP
EE
EE
EE
00
00
00
FF
FF
FF
F0
F0
F0
F0
F0
F0
FF
FF
FF
F0
F0
F0
F0
F0
F0
F0
F0
F0
FF
FF
FF
ENDCHAR
STARTCHAR 00CC
ENCODING 204
SWIDTH 180 0
DWIDTH 6 0
BBX 6 31 -1 0
BITMAP
E0
70
30
18
18
0C
00
3C
3C
3C
3C
3C
3C
3C
3C
3C
3C
3C
3C
3C
3C
3C
3C
3C
3C
3C
3C
3C
3C
3C
3C
ENDCHAR
STARTCHAR 00CD
ENCODING 205
SWIDTH 180 0
DWIDTH 6 0
BBX 6 31 1 0
BITMAP
3C
38
70
60
C0
80
00
F0
F0
F0
F0
F0
F0
F0
F0
F0
F0
F0
F0
F0
F0
F0
F0
F0
F0
F0
F0
F0
F0
F0
F0
ENDCHAR
STARTCHAR 00CE
ENCODING 206
SWIDTH 180 0
DWIDTH 6 0
BBX 8 31 -1 0
BITMAP
38
3C
6C
66
C2
83
00
3C
3C
3C
3C
3C
3C
3C
3C
3C
3C
3C
3C
3C
3C
3C
3C
3C
3C
3C
3C
3C
3C
3C
3C
ENDCHAR
STARTCHAR 00CF
ENCODING 207
SWIDTH 180 0
DWIDTH 6 0
BBX 8 30 -1 0
BITMAP
E7
E7
E7
00
00
00
3C
3C
3C
3C
3C
3C
3C
3C
3C
3C
3C
3C
3C
3C
3C
3C
3C
3C
3C
3C
3C
3C
3C
3C
ENDCHAR
STARTCHAR 00D0
ENCODING 208
SWIDTH 330 0
DWIDTH 11 0
BBX 10 24 0 0
BITMAP
7F00
7F80
7FC0
73C0
71C0
71C0
71C0
71C0
71C0
71C0
FDC0
FDC0
FDC0
71C0
71C0
71C0
71C0
71C0
71C0
71C0
73C0
7FC0
7F80
7F00
ENDCHAR
STARTCHAR 00D1
ENCODING 209
SWIDTH 390 0
DWIDTH 13 0
BBX 11 30 1 0
BITMAP
0840
3FC0
3F80
4000
0000
0000
F8E0
FCE0
FCE0
FCE0
FCE0
FCE0
FCE0
FCE0
FEE0
EEE0
EEE0
EEE0
EEE0
EEE0
EEE0
E7E0
E7E0
E7E0
E7E0
E7E0
E7E0
E7E0
E3E0
E3E0
ENDCHAR
STARTCHAR 00D2
ENCODING 210
SWIDTH 330 0
DWIDTH 11 0
BBX 9 31 1 0
BITMAP
F000
3800
3800
1C00
0C00
0600
0000
3E00
7F00
FF80
F780
E380
E380
E380
E380
E380
E380
E380
E380
E380
E380
E380
E380
E380
E380
E380
E380
F780
FF80
7F00
3E00
ENDCHAR
STARTCHAR 00D3
ENCODING 211
SWIDTH 330 0
DWIDTH 11 0
BBX 9 31 1 0
BITMAP
0780
0700
0E00
0C00
1800
1800
2000
3E00
7F00
FF80
F780
E380
E380
E380
E380
E380
E380
E380
E380
E380
E380
E380
E380
E380
E380
E380
E380
F780
FF80
7F00
3E00
ENDCHAR
STARTCHAR 00D4
ENCODING 212
SWIDTH 330 0
DWIDTH 11 0
BBX 9 31 1 0
BITMAP
1C00
3E00
3600
3300
6300
4180
8000
3E00
7F00
FF80
F780
E380
E380
E380
E380
E380
E380
E380
E380
E380
E380
E380
E380
E380
E380
E380
E380
F780
FF80
7F00
3E00
ENDCHAR
STARTCHAR 00D5
ENCODING 213
SWIDTH 330 0
DWIDTH 11 0
BBX 9 30 1 0
BITMAP
1080
7F80
7F00
C400
0000
0000
3E00
7F00
FF80
F780
E380
E380
E380
E380
E380
E380
E380
E380
E380
E380
E380
E380
E380
E380
E380
E380
F780
FF80
7F00
3E00
ENDCHAR
STARTCHAR 00D6
ENCODING 214
SWIDTH 330 0
DWIDTH 11 0
BBX 9 30 1 0
BITMAP
7700
7700
7700
0000
0000
0000
3E00
7F00
FF80
F780
E380
E380
E380
E380
E380
E380
E380
E380
E380
E380
E380
E380
E380
E380
E380
E380
F780
FF80
7F00
3E00
ENDCHAR
STARTCHAR 00D7
ENCODING 215
SWIDTH 510 0
DWIDTH 17 0
BBX 17 16 0 1
BITMAP
600200
F00700
780F80
3C1E00
1E3C00
0F7800
07F000
03E000
03E000
07F000
0F7800
1E3C00
3C1E00
780F00
F00780
600200
ENDCHAR
STARTCHAR 00D8
ENCODING 216
SWIDTH 330 0
DWIDTH 11 0
BBX 11 26 0 -1
BITMAP
0060
1F60
3FC0
7FC0
7BC0
71C0
71C0
71C0
73C0
73C0
73C0
77C0
77C0
7DC0
7DC0
7DC0
79C0
79C0
79C0
71C0
71C0
7BC0
7FC0
7F80
FF00
C000
ENDCHAR
STARTCHAR 00D9
ENCODING 217
SWIDTH 330 0
DWIDTH 11 0
BBX 9 31 1 0
BITMAP
F000
3800
1800
1C00
0C00
0600
0000
E380
E380
E380
E380
E380
E380
E380
E380
E380
E380
E380
E380
E380
E380
E380
E380
E380
E380
E380
E380
F780
FF80
7F00
3E00
ENDCHAR
STARTCHAR 00DA
ENCODING 218
SWIDTH 330 0
DWIDTH 11 0
BBX 9 31 1 0
BITMAP
0780
0600
0E00
1C00
1800
3000
0000
E380
E380
E380
E380
E380
E380
E380
E380
E380
E380
E380
E380
E380
E380
E380
E380
E380
E380
E380
E380
F780
FF80
7F00
3E00
ENDCHAR
STARTCHAR 00DB
ENCODING 219
SWIDTH 330 0
DWIDTH 11 0
BBX 9 31 1 0
BITMAP
1C00
3E00
3600
7300
6300
C180
0000
E380
E380
E380
E380
E380
E380
E380
E380
E380
E380
E380
E380
E380
E380
E380
E380
E380
E380
E380
E380
F780
FF80
7F00
3E00
ENDCHAR
STARTCHAR 00DC
ENCODING 220
SWIDTH 330 0
DWIDTH 11 0
BBX 9 30 1 0
BITMAP
7700
7700
7700
0000
0000
0000
E380
E380
E380
E380
E380
E380
E380
E380
E380
E380
E380
E380
E380
E380
E380
E380
E380
E380
E380
E380
F780
FF80
7F00
3E00
ENDCHAR
STARTCHAR 00DD
ENCODING 221
SWIDTH 330 0
DWIDTH 11 0
BBX 11 31 0 0
BITMAP
03C0
0300
0700
0E00
0C00
1800
0000
F0E0
F1E0
71C0
79C0
79C0
7BC0
3B80
3B80
3B80
3F80
1F00
1F00
1F00
1F00
0E00
0E00
0E00
0E00
0E00
0E00
0E00
0E00
0E00
0E00
ENDCHAR
STARTCHAR 00DE
ENCODING 222
SWIDTH 330 0
DWIDTH 11 0
BBX 9 24 1 0
BITMAP
E000
E000
E000
E000
FE00
FF00
FF80
E780
E380
E380
E380
E380
E380
E380
E380
E780
FF80
FF00
FC00
E000
E000
E000
E000
E000
ENDCHAR
STARTCHAR 00DF
ENCODING 223
SWIDTH 270 0
DWIDTH 9 0
BBX 8 24 1 0
BITMAP
7C
FE
EE
EE
EE
EE
EE
EE
EE
EE
EE
EE
E7
E7
E7
E7
E7
E7
E7
E7
E7
EF
EE
EC
ENDCHAR
STARTCHAR 00E0
ENCODING 224
SWIDTH 270 0
DWIDTH 9 0
BBX 9 27 0 0
BITMAP
F000
3800
3800
1C00
0C00
0600
0000
0000
3E00
7F00
7780
7780
7780
7780
7780
1F80
3F80
7F80
7780
7780
7780
7780
7780
7780
7F80
7F80
7F80
ENDCHAR
STARTCHAR 00E1
ENCODING 225
SWIDTH 270 0
DWIDTH 9 0
BBX 8 27 1 0
BITMAP
0F
0E
1C
18
30
30
40
00
7C
FE
EF
EF
EF
EF
EF
3F
7F
FF
EF
EF
EF
EF
EF
EF
FF
FF
FF
ENDCHAR
STARTCHAR 00E2
ENCODING 226
SWIDTH 270 0
DWIDTH 9 0
BBX 9 27 0 0
BITMAP
1C00
1E00
3600
3300
6300
6180
8000
0000
3E00
7F00
7780
7780
7780
7780
7780
1F80
3F80
7F80
7780
7780
7780
7780
7780
7780
7F80
7F80
7F80
ENDCHAR
STARTCHAR 00E3
ENCODING 227
SWIDTH 270 0
DWIDTH 9 0
BBX 9 26 0 0
BITMAP
2080
7F80
7F00
C600
0000
0000
0000
3E00
7F00
7780
7780
7780
7780
7780
1F80
3F80
7F80
7780
7780
7780
7780
7780
7780
7F80
7F80
7F80
ENDCHAR
STARTCHAR 00E4
ENCODING 228
SWIDTH 270 0
DWIDTH 9 0
BBX 8 26 1 0
BITMAP
EE
EE
EE
00
00
00
00
7C
FE
EF
EF
EF
EF
EF
3F
7F
FF
EF
EF
EF
EF
EF
EF
FF
FF
FF
ENDCHAR
STARTCHAR 00E5
ENCODING 229
SWIDTH 270 0
DWIDTH 9 0
BBX 8 27 1 0
BITMAP
38
7C
44
44
7C
38
00
00
7C
FE
EF
EF
EF
EF
EF
3F
7F
FF
EF
EF
EF
EF
EF
EF
FF
FF
FF
ENDCHAR
STARTCHAR 00E6
ENCODING 230
SWIDTH 420 0
DWIDTH 14 0
BBX 12 19 1 0
BITMAP
7FE0
FFF0
EF70
EF70
EF70
EF70
EF70
1F70
7FF0
FFF0
EF00
EF70
EF70
EF70
EF70
EF70
FF70
F7F0
F3E0
ENDCHAR
STARTCHAR 00E7
ENCODING 231
SWIDTH 270 0
DWIDTH 9 0
BBX 8 26 1 -7
BITMAP
7C
FE
EF
EF
EF
EF
EF
E0
E0
E0
E0
EF
EF
EF
EF
EF
EF
FE
7C
10
10
3E
0E
06
0E
F8
ENDCHAR
STARTCHAR 00E8
ENCODING 232
SWIDTH 270 0
DWIDTH 9 0
BBX 9 27 0 0
BITMAP
F000
3800
1800
1C00
0C00
0600
0000
0000
3E00
7F00
7780
7780
7780
7780
7780
7780
7F80
7F80
7000
7780
7780
7780
7780
7780
7780
7F00
3E00
ENDCHAR
STARTCHAR 00E9
ENCODING 233
SWIDTH 270 0
DWIDTH 9 0
BBX 8 27 1 0
BITMAP
0F
0E
1C
18
30
60
00
00
7C
FE
EF
EF
EF
EF
EF
EF
FF
FF
E0
EF
EF
EF
EF
EF
EF
FE
7C
ENDCHAR
STARTCHAR 00EA
ENCODING 234
SWIDTH 270 0
DWIDTH 9 0
BBX 9 27 0 0
BITMAP
1C00
1E00
3600
3300
6300
4180
8000
0000
3E00
7F00
7780
7780
7780
7780
7780
7780
7F80
7F80
7000
7780
7780
7780
7780
7780
7780
7F00
3E00
ENDCHAR
STARTCHAR 00EB
ENCODING 235
SWIDTH 270 0
DWIDTH 9 0
BBX 8 26 1 0
BITMAP
EE
EE
EE
00
00
00
7C
FE
FE
EF
EF
EF
EF
EF
EF
FF
FF
E0
EF
EF
EF
EF
EF
EF
FE
7C
ENDCHAR
STARTCHAR 00EC
ENCODING 236
SWIDTH 150 0
DWIDTH 5 0
BBX 7 27 -2 0
BITMAP
F0
30
38
1C
0C
06
00
00
1C
1C
1C
1C
1C
1C
1C
1C
1C
1C
1C
1C
1C
1C
1C
1C
1C
1C
1C
ENDCHAR
STARTCHAR 00ED
ENCODING 237
SWIDTH 150 0
DWIDTH 5 0
BBX 7 27 0 0
BITMAP
1E
38
38
70
60
C0
00
00
70
70
70
70
70
70
70
70
70
70
70
70
70
70
70
70
70
70
70
ENDCHAR
STARTCHAR 00EE
ENCODING 238
SWIDTH 150 0
DWIDTH 5 0
BBX 9 27 -2 0
BITMAP
1C00
3E00
3600
7300
6300
C180
0000
0000
1C00
1C00
1C00
1C00
1C00
1C00
1C00
1C00
1C00
1C00
1C00
1C00
1C00
1C00
1C00
1C00
1C00
1C00
1C00
ENDCHAR
STARTCHAR 00EF
ENCODING 239
SWIDTH 150 0
DWIDTH 5 0
BBX 7 26 -1 0
BITMAP
EE
EE
EE
00
00
00
38
38
38
38
38
38
38
38
38
38
38
38
38
38
38
38
38
38
38
38
ENDCHAR
STARTCHAR 00F0
ENCODING 240
SWIDTH 270 0
DWIDTH 9 0
BBX 8 24 1 0
BITMAP
E0
7C
F8
38
1C
7E
FE
EF
EF
EF
EF
EF
EF
EF
EF
EF
EF
EF
EF
EF
EF
EF
FE
7C
ENDCHAR
STARTCHAR 00F1
ENCODING 241
SWIDTH 270 0
DWIDTH 9 0
BBX 9 26 0 0
BITMAP
2080
7F80
7F00
C600
0000
0000
0000
7700
7F00
7F80
7780
7780
7780
7780
7780
7780
7780
7780
7780
7780
7780
7780
7780
7780
7780
7780
ENDCHAR
STARTCHAR 00F2
ENCODING 242
SWIDTH 270 0
DWIDTH 9 0
BBX 9 27 0 0
BITMAP
F000
3800
1800
1C00
0C00
0600
0000
0000
3E00
7F00
7780
7780
7780
7780
7780
7780
7780
7780
7780
7780
7780
7780
7780
7780
7780
7F00
3E00
ENDCHAR
STARTCHAR 00F3
ENCODING 243
SWIDTH 270 0
DWIDTH 9 0
BBX 8 27 1 0
BITMAP
0F
0E
1C
18
30
60
00
00
7C
FE
EF
EF
EF
EF
EF
EF
EF
EF
EF
EF
EF
EF
EF
EF
EF
FE
7C
ENDCHAR
STARTCHAR 00F4
ENCODING 244
SWIDTH 270 0
DWIDTH 9 0
BBX 9 27 0 0
BITMAP
1C00
1E00
3600
3300
6300
4180
8000
0000
3E00
7F00
7780
7780
7780
7780
7780
7780
7780
7780
7780
7780
7780
7780
7780
7780
7780
7F00
3E00
ENDCHAR
STARTCHAR 00F5
ENCODING 245
SWIDTH 270 0
DWIDTH 9 0
BBX 9 26 0 0
BITMAP
2080
7F80
7F00
C000
0000
0000
0000
3E00
7F00
7780
7780
7780
7780
7780
7780
7780
7780
7780
7780
7780
7780
7780
7780
7780
7F00
3E00
ENDCHAR
STARTCHAR 00F6
ENCODING 246
SWIDTH 270 0
DWIDTH 9 0
BBX 8 26 1 0
BITMAP
EE
EE
EE
00
00
00
7C
FE
FF
EF
EF
EF
EF
EF
EF
EF
EF
EF
EF
EF
EF
EF
EF
EF
FE
7C
ENDCHAR
STARTCHAR 00F7
ENCODING 247
SWIDTH 510 0
DWIDTH 17 0
BBX 17 19 0 0
BITMAP
01C000
03E000
03E000
03E000
01C000
000000
000000
000000
FFFF80
FFFF80
FFFF80
000000
000000
000000
01C000
03E000
03E000
03E000
01C000
ENDCHAR
STARTCHAR 00F8
ENCODING 248
SWIDTH 270 0
DWIDTH 9 0
BBX 9 22 0 -1
BITMAP
0080
0180
3F80
7F00
7780
7780
7780
7780
7780
7F80
7F80
7F80
7F80
7F80
7780
7780
7780
7780
7780
7F00
7E00
C000
ENDCHAR
STARTCHAR 00F9
ENCODING 249
SWIDTH 270 0
DWIDTH 9 0
BBX 9 27 0 0
BITMAP
F000
3800
1800
1C00
0C00
0600
0000
0000
7780
7780
7780
7780
7780
7780
7780
7780
7780
7780
7780
7780
7780
7780
7780
7780
7F80
7F80
7F80
ENDCHAR
STARTCHAR 00FA
ENCODING 250
SWIDTH 270 0
DWIDTH 9 0
BBX 8 27 1 0
BITMAP
0F
0E
1C
18
30
60
00
00
EF
EF
EF
EF
EF
EF
EF
EF
EF
EF
EF
EF
EF
EF
EF
EF
FF
FF
FF
ENDCHAR
STARTCHAR 00FB
ENCODING 251
SWIDTH 270 0
DWIDTH 9 0
BBX 9 27 0 0
BITMAP
1C00
1E00
3600
3300
6300
4180
8000
0000
7780
7780
7780
7780
7780
7780
7780
7780
7780
7780
7780
7780
7780
7780
7780
7780
7F80
7F80
7F80
ENDCHAR
STARTCHAR 00FC
ENCODING 252
SWIDTH 270 0
DWIDTH 9 0
BBX 8 26 1 0
BITMAP
EE
EE
EE
00
00
00
EF
EF
EF
EF
EF
EF
EF
EF
EF
EF
EF
EF
EF
EF
EF
EF
EF
FF
FF
FF
ENDCHAR
STARTCHAR 00FD
ENCODING 253
SWIDTH 270 0
DWIDTH 9 0
BBX 9 31 0 -4
BITMAP
0780
0700
0E00
0C00
1800
3000
0000
0000
E380
E380
F380
7380
7700
7700
7700
7700
7700
7700
3700
3600
3600
3600
3E00
3E00
3E00
1E00
1C00
1C00
1C00
7C00
7800
ENDCHAR
STARTCHAR 00FE
ENCODING 254
SWIDTH 270 0
DWIDTH 9 0
BBX 8 28 1 -4
BITMAP
E0
E0
E0
E0
E0
FE
FE
EF
EF
EF
EF
EF
EF
EF
EF
EF
EF
EF
EF
EF
EF
FF
FF
EE
E0
E0
E0
E0
ENDCHAR
STARTCHAR 00FF
ENCODING 255
SWIDTH 270 0
DWIDTH 9 0
BBX 9 30 0 -4
BITMAP
7700
7700
7700
0000
0000
0000
E380
E380
F380
7380
7780
7700
7700
7700
7700
7700
7700
3700
3600
3600
3600
3E00
3E00
3E00
1E00
1C00
1C00
1C00
7C00
7800
ENDCHAR
STARTCHAR 0131
ENCODING 305
SWIDTH 150 0
DWIDTH 5 0
BBX 3 19 1 0
BITMAP
E0
E0
E0
E0
E0
E0
E0
E0
E0
E0
E0
E0
E0
E0
E0
E0
E0
E0
E0
ENDCHAR
STARTCHAR 0141
ENCODING 321
SWIDTH 270 0
DWIDTH 9 0
BBX 9 24 0 0
BITMAP
7800
7800
7800
7800
7800
7800
7800
7A00
7E00
7E00
7E00
7800
F800
F800
F800
F800
7800
7800
7800
7800
7800
7F80
7F80
7F80
ENDCHAR
STARTCHAR 0142
ENCODING 322
SWIDTH 150 0
DWIDTH 5 0
BBX 5 24 0 0
BITMAP
70
70
70
70
70
70
70
78
78
78
78
70
F0
F0
F0
F0
70
70
70
70
70
70
70
70
ENDCHAR
STARTCHAR 0152
ENCODING 338
SWIDTH 450 0
DWIDTH 15 0
BBX 14 24 1 0
BITMAP
3FFC
7FFC
FFFC
F780
E380
E380
E380
E380
E380
E3FC
E3FC
E3FC
E380
E380
E380
E380
E380
E380
E380
E380
E380
F7FC
FFFC
7FFC
ENDCHAR
STARTCHAR 0153
ENCODING 339
SWIDTH 420 0
DWIDTH 14 0
BBX 12 19 1 0
BITMAP
7FE0
FFF0
EF70
EF70
EF70
EF70
EF70
EF70
EFF0
EFF0
EF00
EF70
EF70
EF70
EF70
EF70
FF70
FFF0
7FE0
ENDCHAR
STARTCHAR 0160
ENCODING 352
SWIDTH 330 0
DWIDTH 11 0
BBX 9 31 1 0
BITMAP
C180
6300
3700
3600
1E00
1C00
0000
3E00
7F00
FF80
F780
E380
E380
E380
E380
F380
7800
7C00
3C00
1E00
0F00
0780
E780
E380
E380
E380
E380
F780
FF80
7F00
3E00
ENDCHAR
STARTCHAR 0161
ENCODING 353
SWIDTH 270 0
DWIDTH 9 0
BBX 9 27 0 0
BITMAP
E180
6300
3700
3E00
1E00
1C00
0000
0000
3E00
7F00
7780
7780
7780
7780
7F80
7C00
3C00
1E00
0F00
7700
7780
7780
7780
7780
7F80
7F00
3E00
ENDCHAR
STARTCHAR 0178
ENCODING 376
SWIDTH 330 0
DWIDTH 11 0
BBX 11 30 0 0
BITMAP
3B80
3B80
3B80
0000
0000
0000
F1E0
71C0
71C0
79C0
79C0
3BC0
3B80
3B80
3B80
3F80
1F00
1F00
1F00
1F00
0E00
0E00
0E00
0E00
0E00
0E00
0E00
0E00
0E00
0E00
ENDCHAR
STARTCHAR 017D
ENCODING 381
SWIDTH 270 0
DWIDTH 9 0
BBX 9 31 0 0
BITMAP
C180
6300
6600
3600
3C00
1C00
0000
FF00
FF00
FF00
0F00
0F00
0F00
0E00
1E00
1E00
1E00
1C00
1C00
3C00
3C00
3C00
3800
7800
7800
7800
7000
7000
FF00
FF00
FF00
ENDCHAR
STARTCHAR 017E
ENCODING 382
SWIDTH 210 0
DWIDTH 7 0
BBX 9 27 -1 0
BITMAP
C180
6300
3300
3600
1E00
1C00
0000
0000
7F00
7F00
0700
0F00
0E00
0E00
0E00
1E00
1C00
1C00
1C00
3C00
3800
3800
3800
7800
7000
7F00
7F00
ENDCHAR
STARTCHAR 0192
ENCODING 402
SWIDTH 330 0
DWIDTH 11 0
BBX 11 28 0 -4
BITMAP
01E0
03E0
03E0
0380
0780
0780
0780
0700
3FE0
3FE0
0F00
0F00
0E00
0E00
0E00
1E00
1E00
1E00
1C00
1C00
1C00
3C00
3C00
3C00
3800
F800
F800
F000
ENDCHAR
STARTCHAR 02C6
ENCODING 710
SWIDTH 150 0
DWIDTH 5 0
BBX 9 6 -2 21
BITMAP
1C00
3E00
3600
7300
6300
C180
ENDCHAR
STARTCHAR 02C7
ENCODING 711
SWIDTH 150 0
DWIDTH 5 0
BBX 9 6 -2 21
BITMAP
C180
6300
7700
3600
3E00
1C00
ENDCHAR
STARTCHAR 02D8
ENCODING 728
SWIDTH 150 0
DWIDTH 5 0
BBX 9 4 -2 22
BITMAP
C080
4100
7F00
3E00
ENDCHAR
STARTCHAR 02D9
ENCODING 729
SWIDTH 150 0
DWIDTH 5 0
BBX 3 3 1 22
BITMAP
E0
E0
E0
ENDCHAR
STARTCHAR 02DA
ENCODING 730
SWIDTH 150 0
DWIDTH 5 0
BBX 5 6 0 21
BITMAP
70
F8
88
88
F8
70
ENDCHAR
STARTCHAR 02DB
ENCODING 731
SWIDTH 150 0
DWIDTH 5 0
BBX 7 7 -1 -7
BITMAP
1C
70
60
E0
E0
E0
3E
ENDCHAR
STARTCHAR 02DC
ENCODING 732
SWIDTH 150 0
DWIDTH 5 0
BBX 9 4 -2 22
BITMAP
2080
7F80
7F00
8000
ENDCHAR
STARTCHAR 02DD
ENCODING 733
SWIDTH 150 0
DWIDTH 5 0
BBX 11 6 -2 21
BITMAP
3DE0
39C0
7380
6300
6600
CE00
ENDCHAR
STARTCHAR 2013
ENCODING 8211
SWIDTH 510 0
DWIDTH 17 0
BBX 17 2 0 9
BITMAP
FFFF80
FFFF80
ENDCHAR
STARTCHAR 2014
ENCODING 8212
SWIDTH 990 0
DWIDTH 33 0
BBX 33 2 0 9
BITMAP
FFFFFFFF80
FFFFFFFF80
ENDCHAR
STARTCHAR 2018
ENCODING 8216
SWIDTH 180 0
DWIDTH 6 0
BBX 5 7 0 17
BITMAP
F0
70
70
70
30
30
38
ENDCHAR
STARTCHAR 2019
ENCODING 8217
SWIDTH 180 0
DWIDTH 6 0
BBX 4 7 1 17
BITMAP
70
70
60
E0
E0
C0
C0
ENDCHAR
STARTCHAR 201A
ENCODING 8218
SWIDTH 180 0
DWIDTH 6 0
BBX 4 7 1 -3
BITMAP
70
70
60
E0
E0
C0
C0
ENDCHAR
STARTCHAR 201C
ENCODING 8220
SWIDTH 330 0
DWIDTH 11 0
BBX 8 7 1 17
BITMAP
EE
EE
E6
67
67
73
33
ENDCHAR
STARTCHAR 201D
ENCODING 8221
SWIDTH 330 0
DWIDTH 11 0
BBX 9 7 1 17
BITMAP
7B80
7300
7700
6700
6600
6600
E600
ENDCHAR
STARTCHAR 201E
ENCODING 8222
SWIDTH 330 0
DWIDTH 11 0
BBX 9 7 1 -3
BITMAP
7B80
7300
7700
6700
6600
6600
E600
ENDCHAR
STARTCHAR 2020
ENCODING 8224
SWIDTH 330 0
DWIDTH 11 0
BBX 11 28 0 -4
BITMAP
0E00
0E00
0E00
0E00
0E00
0E00
0E00
FFE0
FFE0
FFE0
0E00
0E00
0E00
0E00
0E00
0E00
0E00
0E00
0E00
0E00
0E00
0E00
0E00
0E00
0E00
0E00
0E00
0E00
ENDCHAR
STARTCHAR 2021
ENCODING 8225
SWIDTH 330 0
DWIDTH 11 0
BBX 11 28 0 -4
BITMAP
0E00
0E00
0E00
0E00
0E00
0E00
0E00
FFE0
FFE0
FFE0
0E00
0E00
0E00
0E00
0E00
0E00
0E00
0E00
FFE0
FFE0
FFE0
0E00
0E00
0E00
0E00
0E00
0E00
0E00
ENDCHAR
STARTCHAR 2022
ENCODING 8226
SWIDTH 510 0
DWIDTH 17 0
BBX 11 12 3 6
BITMAP
0C00
3F80
7FC0
FFC0
FFE0
FFE0
FFE0
FFE0
FFE0
FFC0
7F80
1F00
ENDCHAR
STARTCHAR 2026
ENCODING 8230
SWIDTH 990 0
DWIDTH 33 0
BBX 25 4 4 0
BITMAP
E01C0380
E01C0380
E01C0380
E01C0380
ENDCHAR
STARTCHAR 2030
ENCODING 8240
SWIDTH 780 0
DWIDTH 26 0
BBX 24 24 1 0
BITMAP
7C1800
7E1000
EE3000
EE3000
EE2000
EE6000
EE6000
EE4000
EEC000
EEC000
EE8000
FFBC3E
7DFF3F
017777
037777
037777
027777
067777
067777
047777
047777
0C7777
0C7E7F
183C3E
ENDCHAR
STARTCHAR 2039
ENCODING 8249
SWIDTH 180 0
DWIDTH 6 0
BBX 4 15 1 2
BITMAP
10
10
30
70
F0
E0
C0
C0
E0
E0
70
30
30
10
10
ENDCHAR
STARTCHAR 203A
ENCODING 8250
SWIDTH 180 0
DWIDTH 6 0
BBX 4 15 1 2
BITMAP
80
80
C0
E0
F0
70
30
10
30
70
F0
E0
C0
80
80
ENDCHAR
STARTCHAR 2044
ENCODING 8260
SWIDTH 180 0
DWIDTH 6 0
BBX 17 24 -6 0
BITMAP
000180
000300
000300
000600
000400
000C00
001800
001000
003000
006000
006000
00C000
008000
018000
030000
030000
060000
0C0000
0C0000
180000
100000
300000
600000
E00000
ENDCHAR
STARTCHAR 2122
ENCODING 8482
SWIDTH 990 0
DWIDTH 33 0
BBX 29 14 2 10
BITMAP
FFE3C078
FFE3E078
0E03E0F8
0E03E0D8
0E03F1D8
0E03B1D8
0E03B198
0E03BB98
0E039B98
0E039F18
0E039F18
0E038E18
0E038E18
0E038E18
ENDCHAR
STARTCHAR 2212
ENCODING 8722
SWIDTH 510 0
DWIDTH 17 0
BBX 17 3 0 8
BITMAP
FFFF80
FFFF80
FFFF80
ENDCHAR
STARTCHAR 2219
ENCODING 8729
SWIDTH 180 0
DWIDTH 6 0
BBX 4 3 1 8
BITMAP
E0
F0
E0
ENDCHAR
STARTCHAR F001
ENCODING 61441
SWIDTH 330 0
DWIDTH 11 0
BBX 10 24 0 0
BITMAP
39C0
79C0
79C0
7000
79C0
F9C0
F9C0
71C0
71C0
71C0
71C0
71C0
71C0
71C0
71C0
71C0
71C0
71C0
71C0
71C0
71C0
71C0
71C0
71C0
ENDCHAR
STARTCHAR F002
ENCODING 61442
SWIDTH 330 0
DWIDTH 11 0
BBX 10 24 0 0
BITMAP
39C0
79C0
79C0
71C0
71C0
F9C0
F9C0
71C0
71C0
71C0
71C0
71C0
71C0
71C0
71C0
71C0
71C0
71C0
71C0
71C0
71C0
71C0
71C0
71C0
ENDCHAR
ENDFONT
